<?xml version="1.0" standalone="no"?>
<!DOCTYPE svg PUBLIC "-//W3C//DTD SVG 20010904//EN"
 "http://www.w3.org/TR/2001/REC-SVG-20010904/DTD/svg10.dtd">
<svg version="1.0" xmlns="http://www.w3.org/2000/svg"
 width="587.000000pt" height="310.000000pt" viewBox="0 0 587.000000 310.000000"
 preserveAspectRatio="xMidYMid meet">

<g transform="translate(0.000000,310.000000) scale(0.100000,-0.100000)"
fill="#000000" stroke="none">
<path d="M2726 2383 c-35 -9 -486 -315 -479 -326 3 -6 1 -7 -5 -3 -18 11 -296
-183 -402 -279 -52 -48 -119 -105 -147 -127 -94 -72 -56 -69 42 4 52 39 92 74
90 78 -6 10 246 212 254 204 3 -3 -16 -26 -44 -51 -27 -25 -40 -39 -27 -30 13
8 32 13 43 10 14 -4 19 0 19 14 0 11 21 34 50 56 59 44 80 54 80 37 0 -6 5 -8
10 -5 6 3 10 14 10 24 0 21 74 76 89 66 6 -3 11 -28 11 -54 0 -41 -5 -51 -37
-84 -21 -20 -41 -36 -45 -37 -5 0 -12 0 -18 0 -5 0 -10 -8 -10 -18 0 -10 -25
-42 -55 -72 -58 -57 -65 -59 -39 -9 8 17 13 33 11 35 -3 3 -13 -15 -23 -40
-11 -25 -22 -46 -26 -46 -4 0 -9 28 -11 63 -3 59 -3 58 -5 -18 l-2 -81 -56
-54 c-30 -30 -65 -68 -76 -85 -12 -16 9 2 46 42 47 51 73 71 88 70 13 -1 54
-30 93 -66 l70 -64 -72 72 c-40 39 -73 76 -73 82 0 6 25 37 57 70 42 44 62 58
79 56 32 -4 157 -95 151 -110 -3 -7 3 -13 13 -13 10 0 16 4 14 8 -3 4 0 8 7 8
6 0 0 9 -14 20 -14 11 -29 20 -34 20 -17 0 -123 81 -123 93 0 17 85 99 93 91
4 -4 7 -2 7 5 0 7 4 9 10 6 5 -3 7 0 5 7 -3 8 11 29 30 48 30 29 37 32 45 20
8 -12 10 -12 10 4 0 19 0 19 23 0 22 -19 22 -19 5 2 -23 26 -22 33 3 60 20 22
20 22 59 3 48 -23 54 -33 40 -61 -11 -22 -10 -21 8 2 18 21 22 22 37 10 9 -7
28 -15 43 -16 25 -2 24 -1 -8 14 -37 18 -46 37 -31 62 8 12 12 12 29 -3 15
-14 19 -14 19 -2 0 8 -6 16 -14 19 -7 3 -13 12 -13 21 0 17 -17 20 -22 4 -3
-8 -14 -6 -37 6 -31 16 -32 18 -17 33 16 16 18 15 35 -7 14 -18 19 -20 23 -9
4 8 -3 20 -14 27 -19 12 -19 14 -5 29 20 20 29 12 32 -29 1 -21 9 -35 21 -40
11 -4 30 -19 44 -34 l25 -27 -25 6 c-22 6 -22 5 5 -11 17 -9 36 -16 42 -15 7
2 22 -2 34 -9 16 -8 20 -8 14 0 -4 8 9 11 47 10 39 -1 63 4 91 21 30 18 40 20
52 10 13 -11 14 -10 9 4 -5 12 0 16 22 16 33 0 29 7 -9 12 -15 2 -33 12 -40
22 -12 16 -13 15 -11 -12 1 -25 -4 -32 -33 -46 -25 -12 -39 -14 -47 -6 -7 5
-15 7 -18 4 -4 -3 -23 4 -45 15 l-38 20 50 2 c28 1 61 2 75 2 15 0 18 2 8 4
-44 10 9 43 69 43 28 0 34 -3 29 -16 -5 -14 -4 -15 9 -4 13 11 19 10 36 -5 11
-11 17 -25 15 -32 -3 -8 2 -13 12 -13 12 0 9 -8 -16 -32 -31 -32 -32 -32 -48
-13 -8 11 -13 14 -9 8 4 -8 -1 -13 -12 -14 -16 0 -16 -1 2 -8 l20 -8 -20 -6
c-19 -5 -19 -6 1 -4 11 1 28 -4 38 -12 14 -12 16 -12 10 3 -5 12 0 16 17 16
20 0 21 2 9 10 -13 9 -11 13 9 30 21 18 26 19 40 6 9 -9 17 -23 18 -33 2 -21
-60 -68 -76 -58 -6 3 -11 2 -11 -4 0 -6 -12 -9 -27 -7 -16 2 -20 1 -10 -1 9
-2 15 -9 11 -14 -3 -6 4 -7 19 -4 20 5 26 1 37 -25 7 -17 17 -33 22 -36 5 -4
3 8 -6 24 -21 41 -21 42 17 43 l32 1 -29 7 c-27 6 -27 7 -10 21 51 42 50 42
83 14 35 -29 39 -41 14 -47 -12 -3 -9 -5 8 -6 18 -1 44 -19 83 -58 l56 -58
-28 -6 -27 -7 28 -1 c16 0 26 -5 23 -10 -4 -5 2 -7 11 -5 12 3 38 -15 78 -56
l59 -60 -34 -1 -35 -2 40 -6 c23 -4 39 -11 38 -18 -2 -7 3 -10 10 -8 6 3 98
-81 202 -186 159 -160 185 -190 160 -185 -26 5 -25 3 9 -12 l39 -18 -137 -129
c-126 -120 -166 -151 -166 -128 0 5 -7 18 -16 29 -14 18 -15 18 -4 -4 6 -12 8
-22 5 -22 -3 0 -47 28 -97 61 -50 34 -88 57 -85 52 4 -6 47 -37 96 -69 50 -32
91 -62 91 -66 0 -4 -59 -26 -130 -50 -72 -23 -127 -44 -123 -45 5 -2 71 18
146 44 l137 48 144 135 c79 74 145 140 145 146 1 5 -87 98 -194 204 -108 108
-193 200 -191 207 3 7 -5 15 -18 19 -13 3 -51 34 -86 69 -55 55 -60 64 -45 73
15 8 13 10 -11 10 -22 0 -40 12 -77 53 -46 49 -48 54 -31 66 16 12 16 13 1 13
-13 0 -17 9 -17 45 0 28 4 45 12 45 9 0 9 3 0 12 -20 20 -13 32 8 13 10 -9 18
-21 17 -26 -1 -5 12 -20 28 -34 25 -21 28 -26 15 -35 -12 -9 -11 -10 5 -6 11
3 34 -1 50 -10 l30 -15 -28 26 c-15 14 -25 31 -21 37 7 10 84 -59 84 -75 0 -5
-7 -4 -15 3 -8 7 -15 10 -15 7 0 -3 21 -21 46 -39 l46 -33 -39 -17 c-21 -10
-27 -15 -13 -11 44 13 88 5 127 -23 l38 -26 -34 29 c-25 22 -31 32 -20 36 8 3
3 6 -11 6 -17 1 -45 21 -85 61 -59 60 -66 74 -20 44 14 -9 25 -14 25 -11 0 4
-20 18 -102 71 -26 17 -26 17 -21 -3 7 -29 -8 -26 -40 7 -34 35 -35 48 -2 26
14 -9 25 -14 25 -11 0 3 -57 42 -127 87 -71 45 -180 115 -243 156 -109 70
-118 74 -170 73 -30 -1 -64 -4 -74 -6z m106 -40 c70 -13 24 -59 -64 -64 -51
-4 -56 -2 -52 16 5 25 31 45 58 45 18 0 19 2 6 11 -12 9 -11 9 5 4 11 -5 32
-10 47 -12z m68 -13 c0 -5 -4 -10 -10 -10 -5 0 -10 5 -10 10 0 6 5 10 10 10 6
0 10 -4 10 -10z m-190 -20 c0 -5 -4 -10 -10 -10 -5 0 -10 5 -10 10 0 6 5 10
10 10 6 0 10 -4 10 -10z m-30 -46 c0 -16 -16 -19 -25 -4 -8 13 4 32 16 25 5
-4 9 -13 9 -21z m-85 -14 c-5 -16 -10 -19 -18 -11 -7 7 -6 15 3 26 17 20 24
13 15 -15z m260 9 c-9 -13 29 -50 47 -47 7 2 19 9 26 16 12 10 16 10 26 -1 17
-21 46 -29 39 -11 -3 8 1 14 11 14 9 0 16 -7 16 -15 0 -17 -49 -32 -59 -19 -9
13 -161 17 -161 4 0 -14 -13 -13 -36 5 -18 15 -18 15 6 14 46 -4 60 1 60 19 0
20 8 32 22 32 5 0 6 -5 3 -11z m162 -4 c0 -10 -10 -15 -29 -15 -15 0 -28 5
-28 11 0 6 6 9 13 6 8 -3 20 -1 28 4 8 5 14 9 15 9 0 0 1 -7 1 -15z m-364 -9
c3 -8 1 -16 -5 -18 -6 -2 3 -14 20 -27 18 -12 32 -18 32 -12 0 17 30 13 37 -5
4 -11 8 -12 13 -4 6 9 13 9 29 1 11 -7 21 -8 21 -3 0 5 26 10 58 10 l57 2 -25
-20 c-14 -11 -33 -17 -42 -14 -10 3 -18 1 -18 -5 0 -17 -83 -13 -109 6 -14 9
-21 11 -17 5 4 -8 0 -12 -11 -12 -25 0 -47 16 -39 28 3 5 -1 12 -8 15 -9 4
-14 19 -14 36 1 33 12 41 21 17z m87 -11 c0 -3 -9 -5 -20 -5 -11 0 -20 7 -20
15 0 13 4 14 20 5 11 -6 20 -13 20 -15z m52 -3 c-27 -4 -37 2 -27 17 4 8 13 7
28 -1 l22 -13 -23 -3z m138 16 c0 -5 -6 -8 -14 -5 -8 3 -16 1 -18 -4 -2 -6
-11 -7 -21 -4 -9 4 -15 10 -12 15 7 11 65 10 65 -2z m-369 -27 c7 11 9 11 9
-3 0 -11 -8 -18 -20 -18 -11 0 -20 6 -20 13 0 22 15 30 19 11 2 -14 5 -14 12
-3z m504 -21 c-16 -6 -14 -8 13 -13 17 -4 37 -5 44 -3 7 1 9 1 5 -2 -4 -2 0
-10 10 -18 17 -13 17 -15 -7 -35 -22 -17 -22 -19 -3 -10 34 17 62 13 88 -14
21 -20 25 -34 25 -82 l0 -57 -70 69 c-57 58 -70 76 -71 105 -1 24 -3 28 -6 13
-2 -13 -8 -23 -12 -23 -17 0 -50 46 -46 65 2 11 4 24 4 28 1 4 11 2 23 -4 22
-12 22 -12 3 -19z m-358 14 c-3 -3 -12 -4 -19 -1 -8 3 -5 6 6 6 11 1 17 -2 13
-5z m408 -4 c3 -5 2 -10 -4 -10 -5 0 -13 5 -16 10 -3 6 -2 10 4 10 5 0 13 -4
16 -10z m-603 -22 c3 -23 -4 -35 -50 -87 l-23 -26 6 25 6 25 -14 -24 -15 -25
-7 33 c-4 18 -5 33 -3 34 1 1 14 11 27 22 l24 20 -6 -30 c-3 -16 -4 -24 -1
-17 3 6 10 9 16 6 6 -4 8 4 7 17 -4 26 7 49 21 49 5 0 10 -10 12 -22z m669
-35 c13 -16 12 -17 -3 -4 -17 13 -22 21 -14 21 2 0 10 -8 17 -17z m-622 -39
c12 -20 20 -38 18 -41 -6 -5 -77 37 -77 46 0 4 5 12 12 19 18 18 24 15 47 -24z
m670 27 c7 -5 12 -14 9 -21 -2 -7 -10 -4 -22 9 -19 21 -12 28 13 12z m-626
-37 c-7 -20 -21 -17 -33 5 -15 29 -13 32 14 20 14 -7 22 -17 19 -25z m125 19
c5 -18 -23 -16 -39 3 -11 14 -10 15 11 12 13 -1 25 -9 28 -15z m-342 -19 c-5
-14 -4 -15 8 -5 11 9 14 6 18 -18 4 -25 -2 -37 -32 -66 -37 -36 -37 -36 -44
-13 -12 48 -7 85 17 101 29 21 41 21 33 1z m414 -4 l35 -19 -47 -1 c-46 0 -65
11 -53 30 9 14 25 12 65 -10z m-480 -4 c0 -2 -8 -10 -17 -17 -16 -13 -17 -12
-4 4 13 16 21 21 21 13z m-137 -104 c-35 -30 -90 -44 -61 -16 8 9 21 16 29 18
8 1 23 7 34 14 33 19 32 13 -2 -16z m-223 -126 c0 -2 -8 -10 -17 -17 -16 -13
-17 -12 -4 4 13 16 21 21 21 13z m-140 -140 c0 -2 -12 -12 -27 -21 l-28 -18
19 21 c17 20 36 29 36 18z"/>
<path d="M3185 2070 c-13 -6 -15 -9 -5 -9 8 0 22 4 30 9 18 12 2 12 -25 0z"/>
<path d="M2918 2063 c6 -2 18 -2 25 0 6 3 1 5 -13 5 -14 0 -19 -2 -12 -5z"/>
<path d="M2684 2041 c14 -16 16 -21 5 -22 -8 0 -3 -5 11 -11 87 -36 158 -73
154 -80 -3 -4 2 -8 11 -8 8 0 20 -10 25 -22 7 -19 9 -20 9 -5 1 15 7 18 34 13
29 -6 30 -5 7 4 -20 9 -22 13 -10 21 11 7 7 8 -12 3 -24 -5 -28 -3 -29 17 -1
17 -3 19 -6 7 -2 -10 -7 -18 -9 -18 -11 0 -109 53 -112 61 -2 5 -10 9 -17 9
-8 0 -18 6 -22 13 -4 6 -19 18 -33 26 l-25 14 19 -22z"/>
<path d="M2829 2027 c12 -15 11 -17 -5 -18 -11 -1 -3 -5 16 -8 42 -8 80 -2 80
11 0 5 -8 8 -17 6 -10 -1 -24 1 -30 5 -7 5 -13 6 -13 2 0 -3 -10 0 -22 6 -21
11 -22 11 -9 -4z"/>
<path d="M2286 2015 c-9 -26 -7 -32 5 -12 6 10 9 21 6 23 -2 3 -7 -2 -11 -11z"/>
<path d="M2938 2023 c7 -3 16 -2 19 1 4 3 -2 6 -13 5 -11 0 -14 -3 -6 -6z"/>
<path d="M2500 1984 c14 -17 33 -37 42 -43 16 -10 16 -8 8 15 -6 14 -8 29 -5
34 3 4 -4 6 -15 3 -11 -3 -28 1 -37 8 -10 8 -6 0 7 -17z"/>
<path d="M2645 1990 c10 -11 20 -20 23 -20 3 0 -3 9 -13 20 -10 11 -20 20 -23
20 -3 0 3 -9 13 -20z"/>
<path d="M2432 1980 c0 -14 2 -19 5 -12 2 6 2 18 0 25 -3 6 -5 1 -5 -13z"/>
<path d="M2938 1993 c6 -2 18 -2 25 0 6 3 1 5 -13 5 -14 0 -19 -2 -12 -5z"/>
<path d="M2262 1955 c-17 -37 -14 -45 4 -12 9 16 14 31 11 33 -2 2 -9 -7 -15
-21z"/>
<path d="M2568 1953 c7 -3 16 -2 19 1 4 3 -2 6 -13 5 -11 0 -14 -3 -6 -6z"/>
<path d="M2679 1938 c4 -11 21 -26 39 -34 30 -12 31 -12 19 7 -6 10 -17 19
-24 19 -7 0 -13 4 -13 9 0 5 -7 11 -14 14 -12 5 -13 1 -7 -15z"/>
<path d="M3520 1957 c3 -3 34 -26 70 -51 46 -33 54 -37 28 -14 -30 28 -114 83
-98 65z"/>
<path d="M2608 1943 c7 -3 16 -2 19 1 4 3 -2 6 -13 5 -11 0 -14 -3 -6 -6z"/>
<path d="M3178 1903 c-46 -46 -48 -47 -63 -28 -13 17 -14 18 -9 2 6 -15 2 -17
-22 -12 l-29 6 30 -14 29 -13 -47 -13 c-26 -8 -45 -16 -43 -19 3 -2 24 2 48
10 24 8 70 16 103 17 71 3 88 11 22 11 -26 0 -47 3 -47 7 0 4 19 27 42 50 23
24 40 43 37 43 -2 0 -25 -21 -51 -47z"/>
<path d="M2402 1895 c39 -42 45 -53 37 -70 -8 -18 -8 -18 3 -3 12 16 15 15 48
-15 31 -28 32 -29 10 -3 l-25 28 35 -6 35 -6 -34 13 c-43 16 -47 28 -25 64
l18 28 -27 -27 c-14 -16 -29 -28 -34 -28 -4 0 -25 17 -48 37 -34 32 -33 30 7
-12z"/>
<path d="M2442 1920 c0 -14 2 -19 5 -12 2 6 2 18 0 25 -3 6 -5 1 -5 -13z"/>
<path d="M2648 1933 c7 -3 16 -2 19 1 4 3 -2 6 -13 5 -11 0 -14 -3 -6 -6z"/>
<path d="M2605 1862 c26 -35 45 -66 42 -69 -7 -7 16 -32 25 -27 3 2 24 -5 45
-17 21 -11 29 -14 19 -5 -11 9 -25 16 -30 17 -6 0 -2 4 9 9 18 8 18 9 -6 9
-17 1 -37 15 -61 44 -76 88 -88 100 -43 39z"/>
<path d="M2152 1885 c-17 -37 -14 -45 4 -12 9 16 14 31 11 33 -2 2 -9 -7 -15
-21z"/>
<path d="M2331 1894 c0 -11 3 -14 6 -6 3 7 2 16 -1 19 -3 4 -6 -2 -5 -13z"/>
<path d="M2775 1875 c11 -9 29 -21 40 -26 l20 -10 -20 16 c-11 9 -29 21 -40
26 l-20 10 20 -16z"/>
<path d="M2902 1850 c0 -14 2 -19 5 -12 2 6 2 18 0 25 -3 6 -5 1 -5 -13z"/>
<path d="M3521 1844 c0 -11 3 -14 6 -6 3 7 2 16 -1 19 -3 4 -6 -2 -5 -13z"/>
<path d="M3735 1782 c44 -45 75 -82 69 -82 -5 0 -15 5 -22 12 -7 7 -12 9 -12
6 0 -4 27 -26 60 -49 37 -26 56 -45 49 -49 -6 -4 0 -9 15 -12 15 -3 25 -2 24
3 -2 4 -61 63 -133 130 -81 76 -100 92 -50 41z"/>
<path d="M1959 1823 c-13 -16 -12 -17 4 -4 9 7 17 15 17 17 0 8 -8 3 -21 -13z"/>
<path d="M2840 1836 c0 -3 9 -10 20 -16 11 -6 20 -8 20 -6 0 3 -9 10 -20 16
-11 6 -20 8 -20 6z"/>
<path d="M1972 1763 c-47 -71 -54 -83 -49 -83 2 0 25 32 51 70 25 39 44 70 41
70 -2 0 -22 -26 -43 -57z"/>
<path d="M3630 1816 c0 -2 14 -14 30 -26 17 -12 30 -19 30 -16 0 2 -13 14 -30
26 -16 12 -30 19 -30 16z"/>
<path d="M1919 1793 c-13 -16 -12 -17 4 -4 9 7 17 15 17 17 0 8 -8 3 -21 -13z"/>
<path d="M2900 1790 c7 -13 21 -20 41 -20 17 0 28 4 25 9 -4 5 0 12 6 14 7 3
-2 3 -19 0 -21 -3 -33 -1 -33 6 0 6 -7 11 -15 11 -13 0 -14 -4 -5 -20z"/>
<path d="M3261 1770 c-31 -22 -59 -36 -65 -32 -6 5 -21 -2 -34 -16 -19 -19
-20 -23 -5 -19 10 3 33 8 51 12 18 4 30 10 27 15 -3 5 15 23 40 40 25 17 45
33 45 35 0 8 -2 6 -59 -35z"/>
<path d="M2405 1770 c-9 -16 -13 -30 -11 -30 3 0 12 14 21 30 9 17 13 30 11
30 -3 0 -12 -13 -21 -30z"/>
<path d="M2221 1774 c0 -11 3 -14 6 -6 3 7 2 16 -1 19 -3 4 -6 -2 -5 -13z"/>
<path d="M1865 1754 l-30 -26 33 22 c17 12 32 23 32 26 0 7 -4 5 -35 -22z"/>
<path d="M2988 1763 c6 -2 18 -2 25 0 6 3 1 5 -13 5 -14 0 -19 -2 -12 -5z"/>
<path d="M3700 1766 c0 -2 14 -14 30 -26 17 -12 30 -19 30 -16 0 2 -13 14 -30
26 -16 12 -30 19 -30 16z"/>
<path d="M2922 1740 c0 -14 2 -19 5 -12 2 6 2 18 0 25 -3 6 -5 1 -5 -13z"/>
<path d="M3038 1753 c6 -2 18 -2 25 0 6 3 1 5 -13 5 -14 0 -19 -2 -12 -5z"/>
<path d="M2578 1707 c23 -27 44 -61 47 -77 4 -20 11 -27 21 -23 7 3 12 9 9 14
-3 4 27 10 67 12 l73 3 -72 2 c-72 2 -73 2 -74 30 -1 16 -3 20 -6 10 -2 -10
-7 -18 -10 -18 -2 0 -25 21 -50 48 l-45 47 40 -48z"/>
<path d="M3088 1743 c6 -2 18 -2 25 0 6 3 1 5 -13 5 -14 0 -19 -2 -12 -5z"/>
<path d="M2651 1724 c0 -11 3 -14 6 -6 3 7 2 16 -1 19 -3 4 -6 -2 -5 -13z"/>
<path d="M3138 1733 c7 -3 16 -2 19 1 4 3 -2 6 -13 5 -11 0 -14 -3 -6 -6z"/>
<path d="M2760 1726 c0 -3 14 -12 30 -21 17 -9 30 -13 30 -11 0 3 -13 12 -30
21 -16 9 -30 13 -30 11z"/>
<path d="M2232 1695 c0 -16 2 -22 5 -12 2 9 2 23 0 30 -3 6 -5 -1 -5 -18z"/>
<path d="M3273 1713 c9 -2 25 -2 35 0 9 3 1 5 -18 5 -19 0 -27 -2 -17 -5z"/>
<path d="M3353 1703 c9 -2 25 -2 35 0 9 3 1 5 -18 5 -19 0 -27 -2 -17 -5z"/>
<path d="M2932 1680 c0 -14 2 -19 5 -12 2 6 2 18 0 25 -3 6 -5 1 -5 -13z"/>
<path d="M3085 1685 c-25 -12 -26 -14 -5 -9 28 7 60 23 45 23 -5 0 -23 -6 -40
-14z"/>
<path d="M3225 1670 c9 -16 18 -30 21 -30 2 0 -2 14 -11 30 -9 17 -18 30 -21
30 -2 0 2 -13 11 -30z"/>
<path d="M2490 1682 c8 -5 26 -13 40 -16 17 -5 20 -4 10 2 -8 5 -26 13 -40 16
-17 5 -20 4 -10 -2z"/>
<path d="M2862 1668 c9 -7 25 -18 35 -25 17 -11 16 -12 -7 -13 -14 -1 9 -8 50
-15 73 -14 111 -13 51 0 -17 4 -29 11 -25 16 5 9 -8 13 -33 10 -6 -1 -28 8
-50 20 -21 11 -31 15 -21 7z"/>
<path d="M3558 1673 c6 -2 18 -2 25 0 6 3 1 5 -13 5 -14 0 -19 -2 -12 -5z"/>
<path d="M3618 1663 c7 -3 16 -2 19 1 4 3 -2 6 -13 5 -11 0 -14 -3 -6 -6z"/>
<path d="M2990 1650 c-8 -5 -10 -10 -5 -10 6 0 17 5 25 10 8 5 11 10 5 10 -5
0 -17 -5 -25 -10z"/>
<path d="M3410 1593 l-65 -68 68 65 c62 60 72 70 64 70 -1 0 -32 -30 -67 -67z"/>
<path d="M3668 1653 c6 -2 18 -2 25 0 6 3 1 5 -13 5 -14 0 -19 -2 -12 -5z"/>
<path d="M2320 1630 c-6 -11 -8 -20 -6 -20 3 0 10 9 16 20 6 11 8 20 6 20 -3
0 -10 -9 -16 -20z"/>
<path d="M3718 1643 c6 -2 18 -2 25 0 6 3 1 5 -13 5 -14 0 -19 -2 -12 -5z"/>
<path d="M3768 1633 c6 -2 18 -2 25 0 6 3 1 5 -13 5 -14 0 -19 -2 -12 -5z"/>
<path d="M2242 1605 c0 -16 2 -22 5 -12 2 9 2 23 0 30 -3 6 -5 -1 -5 -18z"/>
<path d="M3828 1623 c7 -3 16 -2 19 1 4 3 -2 6 -13 5 -11 0 -14 -3 -6 -6z"/>
<path d="M2457 1589 c10 -17 24 -36 32 -42 8 -7 2 7 -14 31 -32 49 -45 57 -18
11z"/>
<path d="M2670 1606 c0 -3 9 -10 20 -16 11 -6 20 -8 20 -6 0 3 -9 10 -20 16
-11 6 -20 8 -20 6z"/>
<path d="M3275 1580 c9 -16 18 -30 21 -30 2 0 -2 14 -11 30 -9 17 -18 30 -21
30 -2 0 2 -13 11 -30z"/>
<path d="M2285 1570 c-9 -17 -20 -28 -25 -25 -6 4 -10 1 -10 -5 0 -6 -5 -8
-11 -4 -8 5 -9 2 -1 -12 7 -13 7 -25 0 -39 -10 -17 -9 -18 4 -7 13 10 17 10
21 0 4 -8 6 -7 6 5 1 9 7 17 14 17 8 0 7 3 -3 10 -12 7 -11 15 8 49 13 23 21
41 18 41 -3 0 -13 -14 -21 -30z"/>
<path d="M2951 1574 c0 -11 3 -14 6 -6 3 7 2 16 -1 19 -3 4 -6 -2 -5 -13z"/>
<path d="M3068 1583 c7 -3 16 -2 19 1 4 3 -2 6 -13 5 -11 0 -14 -3 -6 -6z"/>
<path d="M2622 1560 c0 -14 2 -19 5 -12 2 6 2 18 0 25 -3 6 -5 1 -5 -13z"/>
<path d="M2735 1565 c11 -9 29 -21 40 -26 l20 -10 -20 16 c-11 9 -29 21 -40
26 l-20 10 20 -16z"/>
<path d="M3145 1560 c11 -5 27 -9 35 -9 9 0 8 4 -5 9 -11 5 -27 9 -35 9 -9 0
-8 -4 5 -9z"/>
<path d="M2962 1520 c0 -14 2 -19 5 -12 2 6 2 18 0 25 -3 6 -5 1 -5 -13z"/>
<path d="M3238 1533 c7 -3 16 -2 19 1 4 3 -2 6 -13 5 -11 0 -14 -3 -6 -6z"/>
<path d="M3298 1522 c-3 -12 3 -22 18 -29 13 -6 22 -7 18 -2 -3 5 -1 9 5 9 6
0 8 7 4 15 -3 9 -8 13 -11 11 -3 -3 -11 -1 -17 4 -9 8 -14 5 -17 -8z"/>
<path d="M2612 1510 c0 -14 2 -19 5 -12 2 6 2 18 0 25 -3 6 -5 1 -5 -13z"/>
<path d="M2815 1515 c11 -9 29 -21 40 -26 l20 -10 -20 16 c-11 9 -29 21 -40
26 l-20 10 20 -16z"/>
<path d="M1789 1418 c-41 -46 -66 -77 -56 -69 22 17 141 151 134 151 -3 0 -38
-37 -78 -82z"/>
<path d="M3390 1480 c8 -5 20 -10 25 -10 6 0 3 5 -5 10 -8 5 -19 10 -25 10 -5
0 -3 -5 5 -10z"/>
<path d="M2880 1476 c0 -3 9 -10 20 -16 11 -6 20 -8 20 -6 0 3 -9 10 -20 16
-11 6 -20 8 -20 6z"/>
<path d="M2971 1464 c0 -11 3 -14 6 -6 3 7 2 16 -1 19 -3 4 -6 -2 -5 -13z"/>
<path d="M2405 1460 c11 -5 27 -9 35 -9 9 0 8 4 -5 9 -11 5 -27 9 -35 9 -9 0
-8 -4 5 -9z"/>
<path d="M2556 1448 c13 -22 13 -28 3 -29 -8 0 -4 -4 9 -9 12 -5 22 -16 22
-25 0 -8 4 -14 8 -12 5 1 31 -21 58 -49 44 -45 32 -29 -36 49 l-25 28 205 -3
205 -3 123 -83 c67 -45 122 -80 122 -77 0 2 -55 42 -122 87 -121 81 -122 82
-95 93 26 10 24 11 -23 11 -27 0 -50 -4 -50 -9 0 -4 -83 -7 -185 -5 l-185 3
-26 30 c-24 29 -24 29 -8 3z"/>
<path d="M2602 1450 c0 -14 2 -19 5 -12 2 6 2 18 0 25 -3 6 -5 1 -5 -13z"/>
<path d="M3145 1460 c-13 -5 -14 -9 -5 -9 8 0 24 4 35 9 13 5 14 9 5 9 -8 0
-24 -4 -35 -9z"/>
<path d="M3440 1460 c8 -5 20 -10 25 -10 6 0 3 5 -5 10 -8 5 -19 10 -25 10 -5
0 -3 -5 5 -10z"/>
<path d="M3510 1430 c8 -5 20 -10 25 -10 6 0 3 5 -5 10 -8 5 -19 10 -25 10 -5
0 -3 -5 5 -10z"/>
<path d="M2011 1404 c0 -11 3 -14 6 -6 3 7 2 16 -1 19 -3 4 -6 -2 -5 -13z"/>
<path d="M3385 1390 c9 -16 18 -30 21 -30 2 0 -2 14 -11 30 -9 17 -18 30 -21
30 -2 0 2 -13 11 -30z"/>
<path d="M3560 1410 c8 -5 20 -10 25 -10 6 0 3 5 -5 10 -8 5 -19 10 -25 10 -5
0 -3 -5 5 -10z"/>
<path d="M3620 1385 c14 -8 30 -14 35 -14 6 0 -1 6 -15 14 -14 8 -29 14 -35
14 -5 0 1 -6 15 -14z"/>
<path d="M2160 1360 c-6 -11 -8 -20 -6 -20 3 0 10 9 16 20 6 11 8 20 6 20 -3
0 -10 -9 -16 -20z"/>
<path d="M2301 1360 c0 -8 4 -24 9 -35 5 -13 9 -14 9 -5 0 8 -4 24 -9 35 -5
13 -9 14 -9 5z"/>
<path d="M3680 1360 c8 -5 20 -10 25 -10 6 0 3 5 -5 10 -8 5 -19 10 -25 10 -5
0 -3 -5 5 -10z"/>
<path d="M2001 1344 c0 -11 3 -14 6 -6 3 7 2 16 -1 19 -3 4 -6 -2 -5 -13z"/>
<path d="M2582 1340 c0 -14 2 -19 5 -12 2 6 2 18 0 25 -3 6 -5 1 -5 -13z"/>
<path d="M1667 1315 c-15 -19 -27 -38 -27 -42 0 -5 28 -35 63 -68 l62 -60 -58
61 -58 60 22 20 c27 24 41 51 31 58 -4 2 -20 -11 -35 -29z"/>
<path d="M3730 1340 c8 -5 20 -10 25 -10 6 0 3 5 -5 10 -8 5 -19 10 -25 10 -5
0 -3 -5 5 -10z"/>
<path d="M2125 1300 c-9 -16 -13 -30 -11 -30 3 0 12 14 21 30 9 17 13 30 11
30 -3 0 -12 -13 -21 -30z"/>
<path d="M3435 1300 c9 -16 18 -30 21 -30 2 0 -2 14 -11 30 -9 17 -18 30 -21
30 -2 0 2 -13 11 -30z"/>
<path d="M3800 1310 c8 -5 20 -10 25 -10 6 0 3 5 -5 10 -8 5 -19 10 -25 10 -5
0 -3 -5 5 -10z"/>
<path d="M1992 1290 c0 -14 2 -19 5 -12 2 6 2 18 0 25 -3 6 -5 1 -5 -13z"/>
<path d="M2571 1284 c0 -11 3 -14 6 -6 3 7 2 16 -1 19 -3 4 -6 -2 -5 -13z"/>
<path d="M2085 1230 c-9 -16 -13 -30 -11 -30 3 0 12 14 21 30 9 17 13 30 11
30 -3 0 -12 -13 -21 -30z"/>
<path d="M2760 1200 c29 -33 57 -63 64 -67 6 -4 -15 23 -48 60 -32 37 -61 67
-63 67 -3 0 18 -27 47 -60z"/>
<path d="M1982 1230 c0 -14 2 -19 5 -12 2 6 2 18 0 25 -3 6 -5 1 -5 -13z"/>
<path d="M2562 1230 c0 -14 2 -19 5 -12 2 6 2 18 0 25 -3 6 -5 1 -5 -13z"/>
<path d="M1972 1170 c0 -14 2 -19 5 -12 2 6 2 18 0 25 -3 6 -5 1 -5 -13z"/>
<path d="M1830 1085 c35 -36 67 -65 69 -65 3 0 -24 29 -59 65 -35 36 -67 65
-69 65 -3 0 24 -29 59 -65z"/>
<path d="M3545 1110 c9 -16 18 -30 21 -30 2 0 -2 14 -11 30 -9 17 -18 30 -21
30 -2 0 2 -13 11 -30z"/>
<path d="M1962 1110 c0 -14 2 -19 5 -12 2 6 2 18 0 25 -3 6 -5 1 -5 -13z"/>
<path d="M3041 1114 c0 -11 3 -14 6 -6 3 7 2 16 -1 19 -3 4 -6 -2 -5 -13z"/>
<path d="M2860 1085 c19 -19 36 -35 39 -35 3 0 -10 16 -29 35 -19 19 -36 35
-39 35 -3 0 10 -16 29 -35z"/>
<path d="M2000 1090 c-6 -11 -8 -20 -6 -20 3 0 10 9 16 20 6 11 8 20 6 20 -3
0 -10 -9 -16 -20z"/>
<path d="M3051 1064 c0 -11 3 -14 6 -6 3 7 2 16 -1 19 -3 4 -6 -2 -5 -13z"/>
<path d="M1951 1053 c-2 -41 -12 -55 -30 -42 -9 6 -3 0 12 -15 15 -14 33 -26
40 -26 7 0 6 4 -3 10 -12 8 -12 14 3 47 12 26 13 32 3 20 -14 -18 -15 -18 -19
5 -4 22 -4 22 -6 1z"/>
<path d="M2950 980 c29 -33 57 -63 64 -67 6 -4 -15 23 -48 60 -32 37 -61 67
-63 67 -3 0 18 -27 47 -60z"/>
<path d="M3062 1010 c0 -14 2 -19 5 -12 2 6 2 18 0 25 -3 6 -5 1 -5 -13z"/>
<path d="M2421 1000 c0 -8 4 -24 9 -35 5 -13 9 -14 9 -5 0 8 -4 24 -9 35 -5
13 -9 14 -9 5z"/>
<path d="M3071 954 c0 -11 3 -14 6 -6 3 7 2 16 -1 19 -3 4 -6 -2 -5 -13z"/>
<path d="M2050 945 c19 -7 42 -13 50 -13 8 0 -1 6 -20 13 -19 7 -42 13 -50 13
-8 0 1 -6 20 -13z"/>
<path d="M3082 900 c0 -14 2 -19 5 -12 2 6 2 18 0 25 -3 6 -5 1 -5 -13z"/>
<path d="M2270 875 c19 -7 42 -13 50 -13 8 0 -1 6 -20 13 -19 7 -42 13 -50 13
-8 0 1 -6 20 -13z"/>
<path d="M2491 874 c0 -11 3 -14 6 -6 3 7 2 16 -1 19 -3 4 -6 -2 -5 -13z"/>
<path d="M3054 863 c15 -17 25 -36 22 -42 -5 -7 3 -11 21 -10 15 0 22 3 16 6
-7 2 -14 17 -14 31 -1 19 -3 21 -6 9 -4 -17 -8 -16 -36 10 l-32 28 29 -32z"/>
<path d="M2467 830 c-4 -16 0 -20 21 -19 15 0 21 3 15 6 -7 2 -13 11 -13 19 0
21 -17 17 -23 -6z"/>
</g>
</svg>
